<svg width="90" height="90" viewBox="0 0 90 90" fill="none" xmlns="http://www.w3.org/2000/svg">
<path d="M45.3823 82.0168L78.1175 74.3877C84.2865 66.9344 87.9948 57.3673 87.9948 46.933C87.9948 23.1478 68.7287 3.86621 44.9627 3.86621C21.1967 3.86621 1.93066 23.1478 1.93066 46.933C1.93066 57.4674 5.71201 67.1165 11.9876 74.6002L45.3823 82.0168Z" fill="#FFC839"/>
<path d="M20.6522 76.9102C22.4241 78.2872 24.6108 79.0352 26.8629 79.0352C29.1149 79.0352 31.3014 78.2872 33.0733 76.9102C34.3829 75.8924 35.7796 74.5069 37.0034 72.7635C36.6613 72.664 36.3153 72.5701 35.9649 72.4822C35.5871 72.3875 35.2551 72.16 35.0406 71.8575C34.0525 70.4623 33.7787 68.3055 33.7251 66.7412C33.0318 67.5493 32.3043 68.225 31.6093 68.7652C28.8216 70.9318 24.9004 70.929 22.1162 68.7652C21.421 68.225 20.6937 67.5491 20.0004 66.7412C19.9453 68.3401 19.6609 70.5585 18.6182 71.9494C18.4402 72.1867 18.1661 72.3806 17.8374 72.4622C17.4614 72.5554 17.0904 72.657 16.7227 72.764C17.9462 74.5072 19.3427 75.8924 20.6522 76.9102Z" fill="#FCAD6D"/>
<path d="M26.6093 70.3839C25.017 70.3322 23.4378 69.793 22.1152 68.7652C21.42 68.225 20.6927 67.5491 19.9995 66.7412C19.9443 68.3401 19.66 70.5585 18.6172 71.9494C18.4393 72.1867 18.1651 72.3806 17.8365 72.4622C17.4604 72.5554 17.0895 72.657 16.7217 72.764C17.9452 74.5071 19.3417 75.8924 20.6513 76.91C21.5057 77.5739 22.457 78.09 23.4652 78.4482C25.4334 75.849 26.2615 72.6223 26.6093 70.3839Z" fill="#FD995B"/>
<path d="M39.48 81.6025C41.0658 78.4282 43.5968 77.0617 45.382 76.4751C44.8437 76.3171 44.3859 76.0177 43.621 75.5862C41.4471 74.3592 39.196 73.3808 36.7432 72.6926C35.5451 74.416 34.1704 75.7811 32.8831 76.7815C31.1652 78.1165 29.0452 78.8418 26.8619 78.8418C24.6785 78.8418 22.5585 78.1167 20.8406 76.7815C19.553 75.7809 18.1779 74.4155 16.9799 72.6914C15.2349 73.1818 13.5809 73.827 11.9873 74.6C18.4356 82.2896 27.5188 87.6903 37.846 89.411C38.182 86.6314 38.7084 83.1467 39.48 81.6025Z" fill="#3C58A0"/>
<path d="M19.547 81.6853C21.2676 80.8689 22.5842 79.6569 23.5904 78.2807C22.6051 77.9332 21.6751 77.4299 20.8406 76.7815C19.553 75.7809 18.1779 74.4155 16.9799 72.6914C15.2349 73.1818 13.5809 73.827 11.9873 74.6C14.2125 77.2535 16.7517 79.6341 19.547 81.6853Z" fill="#1C2E7A"/>
<path d="M61.1702 12.9598C62.2453 12.9598 63.1169 12.0876 63.1169 11.0117C63.1169 9.93571 62.2453 9.06348 61.1702 9.06348C60.0952 9.06348 59.2236 9.93571 59.2236 11.0117C59.2236 12.0876 60.0952 12.9598 61.1702 12.9598Z" fill="#4FABF7"/>
<path d="M54.5306 12.9598C55.6057 12.9598 56.4772 12.0876 56.4772 11.0117C56.4772 9.93571 55.6057 9.06348 54.5306 9.06348C53.4555 9.06348 52.584 9.93571 52.584 11.0117C52.584 12.0876 53.4555 12.9598 54.5306 12.9598Z" fill="#4FABF7"/>
<path d="M47.889 12.9598C48.9641 12.9598 49.8356 12.0876 49.8356 11.0117C49.8356 9.93571 48.9641 9.06348 47.889 9.06348C46.8139 9.06348 45.9424 9.93571 45.9424 11.0117C45.9424 12.0876 46.8139 12.9598 47.889 12.9598Z" fill="#4FABF7"/>
<path d="M75.586 53.3633C75.6115 54.7581 75.4738 56.1865 75.3248 57.1391C74.6216 60.2411 73.6062 62.942 72.3075 65.1663C71.7186 66.1749 70.9841 67.0916 70.1238 67.8912L70.0137 67.9937V68.6884C70.0137 69.4086 70.2933 70.0745 70.7693 70.6878C73.4343 70.5266 75.6998 69.9862 77.4857 69.3708C79.6354 68.6299 80.5763 66.0797 79.4018 64.1313C76.6363 59.5438 77.0484 53.3633 77.0484 53.3633H75.586Z" fill="#2A428C"/>
<path d="M79.402 64.1315C79.1425 63.7012 78.9111 63.2567 78.7045 62.8048C75.4859 64.6733 74.1997 62.0257 74.1997 62.0257C74.1997 62.0257 74.1166 61.9037 73.9642 61.6768C73.4778 62.9419 72.9253 64.1087 72.3075 65.1664C71.7186 66.175 70.9839 67.0917 70.1238 67.8913L70.0137 67.9938V68.6885C70.0137 69.4087 70.2933 70.0747 70.7693 70.6878C73.4343 70.5266 75.6998 69.9863 77.4857 69.3709C79.6356 68.6301 80.5765 66.0797 79.402 64.1315Z" fill="#1C2E7A"/>
<path d="M52.3121 69.3714C54.0979 69.9868 56.3636 70.527 59.0286 70.6884C59.5048 70.0751 59.7844 69.409 59.7844 68.689V67.8358L59.679 67.734C58.8918 66.9734 58.2134 66.1098 57.663 65.1671C56.3636 62.9412 55.3486 60.2415 54.6464 57.143C54.4925 56.2446 54.3536 54.7927 54.3845 53.3643H52.7497C52.7497 53.3643 53.1617 59.5445 50.3963 64.1323C49.2216 66.0801 50.1627 68.6305 52.3121 69.3714Z" fill="#1C2E7A"/>
<path d="M71.2291 35.5528C69.5721 34.6973 67.5119 34.1035 64.9846 34.1035C62.4573 34.1035 60.3971 34.6971 58.7401 35.5528C55.1129 37.4256 52.8779 41.1443 52.8779 45.1568V50.1066L52.8781 50.1082C53.4502 50.0949 54.083 50.2824 54.4907 50.5544C54.641 50.0623 54.8465 49.6364 55.1245 49.323C55.3746 49.0409 55.5317 48.6918 55.5427 48.3184C55.5854 46.8895 55.9601 43.5126 58.4743 42.22C59.1748 41.8599 60.0307 42.1346 60.4241 42.8173C61.9386 45.4453 65.4715 48.9083 73.3278 47.4325C73.8849 47.3279 74.4085 47.7424 74.4259 48.3096C74.4261 48.3126 74.4261 48.3156 74.4261 48.3186C74.4372 48.692 74.5942 49.0411 74.8445 49.3232C75.1223 49.6366 75.328 50.0627 75.4782 50.5545C75.8858 50.2826 76.5187 50.095 77.0907 50.1084L77.0909 50.1068V45.157C77.0912 41.1443 74.8562 37.4256 71.2291 35.5528Z" fill="#2A428C"/>
<path d="M64.8335 46.5507C60.9396 39.1058 68.2555 34.4673 68.2555 34.4673C67.2644 34.2379 66.1772 34.1045 64.9846 34.1045C62.4573 34.1045 60.3971 34.6981 58.7401 35.5538C55.1129 37.4266 52.8779 41.1452 52.8779 45.1578V50.1076L52.8781 50.1092C53.4502 50.0958 54.083 50.2834 54.4907 50.5553C54.641 50.0633 54.8465 49.6374 55.1244 49.324C55.3745 49.0419 55.5315 48.6928 55.5427 48.3194C55.5854 46.8905 55.9601 43.5135 58.4743 42.221C59.1748 41.8608 60.0307 42.1356 60.4241 42.8183C61.2428 44.239 62.6535 45.9024 65.0162 46.8989C64.9553 46.7825 64.8943 46.6667 64.8335 46.5507Z" fill="#1C2E7A"/>
<path d="M54.3917 57.191C54.3917 57.191 53.7349 53.0318 54.4913 50.5549C53.805 50.0972 52.4791 49.8736 51.8828 50.457C50.662 51.6514 51.5565 53.4553 51.9845 54.5947C52.1159 54.9445 52.2007 55.2983 52.239 55.6529C52.3223 56.4232 52.7396 57.5506 54.47 57.5241C54.444 57.413 54.4173 57.3038 54.3917 57.191Z" fill="#FD995B"/>
<path d="M78.0869 50.4561C77.4906 49.8726 76.1647 50.0961 75.4785 50.554C76.2348 53.0309 75.5781 57.19 75.5781 57.19C75.5525 57.3029 75.5258 57.4121 75.4996 57.5232C77.23 57.5497 77.6471 56.4222 77.7306 55.652C77.7689 55.2974 77.8537 54.9436 77.9851 54.5938C78.4133 53.4544 79.3078 51.6505 78.0869 50.4561Z" fill="#FCAD6D"/>
<path d="M24.5672 34.2467C17.6753 35.1865 17.0201 39.0972 17.0172 40.532C17.0165 40.8329 16.8499 41.1117 16.5796 41.2434C12.9947 42.9887 14.9276 51.4007 14.9276 51.4007C15.2876 51.4248 15.8275 51.734 16.1086 51.8702C16.1774 51.4415 16.2898 51.0196 16.4484 50.6116C16.5693 50.3008 16.7205 49.9867 16.9095 49.6902C17.2374 49.1755 17.3867 48.5682 17.3421 47.961C17.2132 46.2062 17.1122 42.9113 19.4268 41.8691C21.3876 40.9862 23.793 41.4974 25.3268 42.0078C26.3231 42.3393 27.402 42.3393 28.3983 42.0078C29.9321 41.4974 32.3375 40.986 34.2983 41.8691C36.6062 42.9083 36.5116 46.1865 36.3841 47.9461C36.3398 48.5578 36.4851 49.1713 36.8154 49.69C37.0106 49.9962 37.1653 50.3209 37.2881 50.6415C37.4407 51.0402 37.5492 51.4518 37.6163 51.8702C37.9706 51.6985 38.6401 51.3481 39.0733 51.4093C39.1263 49.5699 39.296 47.5871 39.296 47.5871C41.3381 37.5759 31.988 33.2348 24.5672 34.2467Z" fill="#2A428C"/>
<path d="M24.5672 34.2472C17.6753 35.1869 17.0201 39.0977 17.0172 40.5324C17.0165 40.8333 16.8499 41.1121 16.5796 41.2438C12.9947 42.9891 14.9276 51.4011 14.9276 51.4011C15.2876 51.4252 15.8275 51.7344 16.1086 51.8706C16.1774 51.4419 16.2898 51.02 16.4484 50.612C16.5693 50.3013 16.7205 49.9871 16.9095 49.6906C17.2374 49.1759 17.3867 48.5686 17.3421 47.9614C17.2132 46.2066 17.1122 42.9118 19.4268 41.8696C21.3876 40.9866 23.793 41.4978 25.3268 42.0083C25.7464 42.1478 26.1808 42.2252 26.6174 42.2471C26.5505 42.1324 26.479 42.0183 26.3991 41.9058C23.4424 37.7468 27.5524 34.7162 28.3456 34.1865C27.0734 34.0598 25.794 34.0798 24.5672 34.2472Z" fill="#1C2E7A"/>
<path d="M39.6836 51.6481C39.1468 51.1558 38.0775 51.4054 37.6152 51.7068C37.7166 52.3381 37.7224 52.9839 37.6347 53.6215L37.0892 57.5982C37.0892 57.9188 37.0792 58.2332 37.0605 58.5423C38.3908 58.9439 39.0516 57.7486 39.163 56.9282C39.2109 56.5751 39.2892 56.2271 39.398 55.8875C39.7519 54.7814 41.0284 52.8816 39.6836 51.6481Z" fill="#FCAD6D"/>
<path d="M14.0399 51.6481C14.5766 51.1558 15.6459 51.4054 16.1082 51.7068C16.0069 52.3381 16.0011 52.9839 16.0887 53.6215L16.6342 57.5982C16.6342 57.9188 16.6444 58.2332 16.6629 58.5423C15.3326 58.9439 14.6716 57.7486 14.5605 56.9282C14.5125 56.5751 14.4342 56.2271 14.3255 55.8875C13.9715 54.7814 12.695 52.8816 14.0399 51.6481Z" fill="#FD995B"/>
<path d="M37.4511 50.4779C37.3283 50.1572 37.1736 49.8326 36.9784 49.5262C36.648 49.0075 36.5028 48.394 36.5471 47.7823C36.6744 46.0227 36.6061 42.5814 34.2982 41.5422C32.3373 40.6593 29.9323 41.1704 28.3984 41.6809C27.4024 42.0124 26.3227 42.0124 25.3265 41.6809C23.7926 41.1704 21.3874 40.6593 19.4268 41.5422C17.1122 42.5844 17.0502 46.0426 17.1789 47.7974C17.2235 48.4045 17.0742 49.0117 16.7463 49.5265C16.5573 49.8233 16.4063 50.1372 16.2854 50.448C15.8932 51.4563 15.7789 52.5496 15.9259 53.6203L16.4716 57.5979C16.4716 63.3162 19.5218 67.2029 22.1162 69.2193C23.4703 70.2717 25.1415 70.8435 26.8626 70.8435C28.5837 70.8435 30.2549 70.2719 31.6091 69.2193C34.2035 67.2031 37.2536 63.3162 37.2536 57.5979L37.7992 53.6212C37.9444 52.5611 37.8343 51.4782 37.4511 50.4779Z" fill="#F9BA8F"/>
<path d="M29.6923 69.2193C27.0979 67.2031 24.0477 63.3162 24.0477 57.5979L23.502 53.6203C23.3552 52.5496 23.4695 51.4563 23.8616 50.448C23.9824 50.1372 24.1336 49.8233 24.3224 49.5265C24.6504 49.0119 24.7997 48.4045 24.755 47.7974C24.6386 46.2106 24.6786 43.2318 26.3982 41.905C26.0353 41.8704 25.675 41.7973 25.3255 41.6809C23.7917 41.1704 21.3865 40.6593 19.4258 41.5422C17.1112 42.5844 17.0492 46.0426 17.178 47.7974C17.2226 48.4045 17.0733 49.0117 16.7454 49.5265C16.5564 49.8233 16.4053 50.1372 16.2845 50.448C15.8923 51.4563 15.7779 52.5496 15.9249 53.6203L16.4707 57.5979C16.4707 63.3162 19.5208 67.2029 22.1152 69.2193C23.4694 70.2717 25.1406 70.8435 26.8617 70.8435C28.1964 70.8435 29.5001 70.4983 30.6502 69.8532C30.3172 69.6665 29.9965 69.4557 29.6923 69.2193Z" fill="#FCAD6D"/>
<path d="M47.7853 27.3445C48.197 26.3504 47.7255 25.2103 46.7322 24.7983C45.7388 24.3862 44.5997 24.858 44.1879 25.8522C43.7762 26.8464 44.2477 27.9864 45.241 28.3985C46.2344 28.8106 47.3735 28.3387 47.7853 27.3445Z" fill="#E9EFFF"/>
<path d="M37.3818 26.5947C37.3818 27.6706 38.2534 28.5429 39.3284 28.5429C40.4035 28.5429 41.2751 27.6706 41.2751 26.5947C41.2751 25.5187 40.4035 24.6465 39.3284 24.6465C38.2532 24.6467 37.3818 25.5189 37.3818 26.5947Z" fill="#E9EFFF"/>
<path d="M34.5001 27.3465C34.9119 26.3523 34.4404 25.2123 33.447 24.8002C32.4536 24.3881 31.3145 24.86 30.9028 25.8542C30.491 26.8484 30.9625 27.9884 31.9559 28.4005C32.9493 28.8125 34.0884 28.3407 34.5001 27.3465Z" fill="#E9EFFF"/>
<path d="M54.0644 74.0977C55.9848 77.3869 58.8931 79.945 62.4749 81.4959C64.0792 82.1903 65.9187 82.1905 67.5226 81.4959C71.1044 79.945 74.0127 77.3869 75.9331 74.0977C76.0097 73.9667 76.0845 73.8329 76.1595 73.6995C73.151 72.5325 70.3727 70.877 70.3727 68.7167C70.3727 67.9568 70.3727 68.1844 70.3727 67.6924C69.0487 68.877 66.7784 70.3861 64.9086 70.4314C63.0387 70.3861 60.7684 68.877 59.4444 67.6924C59.4444 69.1051 59.8191 70.8055 55.3824 72.9612C54.8843 73.2033 54.353 73.4315 53.8076 73.6459C53.8926 73.7973 53.9776 73.949 54.0644 74.0977Z" fill="#FCAD6D"/>
<path d="M59.4444 67.6924C59.4444 69.1051 59.8191 70.8055 55.3824 72.9612C54.8843 73.2033 54.353 73.4315 53.8076 73.6459C53.8926 73.7974 53.9776 73.9491 54.0644 74.0979C55.3652 76.3259 57.1205 78.2169 59.2301 79.6882C62.7898 77.071 64.1472 73.0664 64.6651 70.4142C62.845 70.2539 60.7117 68.8262 59.4444 67.6924Z" fill="#FD995B"/>
<path d="M44.9627 89.9992C58.3027 89.9992 70.2242 83.9237 78.1175 74.3872C77.3332 74.1364 76.5272 73.8523 75.7449 73.5344C75.6446 73.7147 75.5435 73.8936 75.4407 74.0698C73.6062 77.2119 70.8281 79.6556 67.4064 81.1372C65.8742 81.8006 64.1171 81.8006 62.5844 81.1372C59.163 79.6558 56.3847 77.2119 54.5501 74.0698C54.4372 73.8762 54.3257 73.6801 54.2159 73.4814C50.6673 74.9453 46.2852 75.7961 46.2668 75.8007C44.6611 76.1092 41.1371 77.2316 39.129 81.2506C38.3307 82.8485 37.7948 86.5237 37.4609 89.3457C39.8971 89.7744 42.4036 89.9992 44.9627 89.9992Z" fill="#FC90CE"/>
<path d="M56.8624 81.0511C57.8771 80.6062 58.765 80.0622 59.542 79.4512C57.5009 78.04 55.8047 76.2185 54.5501 74.0698C54.4372 73.8762 54.3257 73.6801 54.2159 73.4814C50.6673 74.9454 46.2852 75.7961 46.2668 75.8007C44.6611 76.1092 41.1371 77.2316 39.129 81.2506C38.3307 82.8485 37.7948 86.5237 37.4609 89.3457C39.8972 89.7746 42.4038 89.9994 44.9629 89.9994C46.2814 89.9994 47.5855 89.9377 48.8738 89.8215C48.9128 84.3491 49.4548 84.2996 56.8624 81.0511Z" fill="#F964B2"/>
<path d="M74.5138 48.316C74.5084 48.1343 74.497 47.9145 74.4757 47.669C74.412 47.5769 74.3357 47.4925 74.2465 47.4206C73.9755 47.2025 73.6228 47.1144 73.2814 47.1784C65.79 48.5855 62.2777 45.5132 60.6494 42.6882C60.352 42.1721 59.8369 41.8613 59.2908 41.8105C58.8285 41.9389 58.4038 42.131 58.0183 42.388C55.8232 43.8508 55.4965 47.0209 55.4578 48.316C55.4478 48.6563 55.3106 48.9849 55.0611 49.2661C53.6865 50.8163 53.9876 55.3452 54.3083 57.2099C55.0186 60.3472 56.0473 63.0827 57.3655 65.3408C58.7038 67.6332 60.7307 69.4159 63.2267 70.4968C64.3448 70.9807 65.6267 70.9807 66.7446 70.4968C69.2408 69.4159 71.2675 67.6332 72.6059 65.3408C73.924 63.0834 74.9528 60.3477 75.6644 57.2044C75.9725 55.2443 76.3006 50.8343 74.9103 49.2663C74.661 48.9847 74.524 48.6562 74.5138 48.316Z" fill="#F9BA8F"/>
<path d="M66.5526 65.3405C65.2343 63.0824 64.2056 60.3469 63.4955 57.2097C63.1747 55.345 62.8737 50.8162 64.2482 49.266C64.4977 48.9847 64.6348 48.6564 64.645 48.316C64.6577 47.8887 64.7024 47.257 64.8345 46.5501C62.7781 45.6064 61.4724 44.1161 60.6494 42.6882C60.352 42.1721 59.8369 41.8613 59.291 41.8105C58.8287 41.9389 58.404 42.131 58.0183 42.388C55.8232 43.8508 55.4965 47.0211 55.4578 48.316C55.4476 48.6564 55.3106 48.9849 55.0611 49.266C53.6865 50.8162 53.9876 55.345 54.3083 57.2097C55.0184 60.347 56.0473 63.0826 57.3655 65.3405C58.7038 67.6328 60.7307 69.4156 63.2267 70.4965C64.3448 70.9804 65.6267 70.9804 66.7446 70.4965C67.7751 70.0502 68.7242 69.4826 69.5793 68.8106C68.3633 67.855 67.3384 66.6864 66.5526 65.3405Z" fill="#FCAD6D"/>
</svg>
